<svg xmlns="http://www.w3.org/2000/svg" width="736" height="703" fill="none"><g clip-path="url(#a)"><path stroke="url(#b)" stroke-miterlimit="10" stroke-opacity=".5" stroke-width=".922" d="M556.692 59.232v.011l-.005-.014.005.003zm0 0c.131.081.259.16.384.239l-.049-.153a14.53 14.53 0 0 0-.335-.198v.112zM380.075 49.038h.06c-.081-15.074-.167-30.146-.26-45.219h-.297c.092 15.053.179 30.106.259 45.16l.238.059zm7.115 2.013c.099.023.198.045.298.063-.217-13.61-.448-27.22-.695-40.83a5.59 5.59 0 0 0-.297-.028c.246 13.598.477 27.197.694 40.794zm7.306-3.406.236-.09-.191-7.035a4.364 4.364 0 0 1-.301-.133l.198 7.28.058-.022zm7.078-4.107h.297l-.036-.935a2.142 2.142 0 0 1-.301-.112l.04 1.047zm-.044-8.796.215 5.524a2.725 2.725 0 0 1-.3-.085l-.221-5.665c.1.077.202.153.306.226zm-.4-10.008.077 1.886a.916.916 0 0 1-.297.014l-.084-2.061c.109.047.211.1.304.16zm-.131-3.22.045 1.095h-.298l-.051-1.256c.102.053.204.107.304.162zm-7.233-7.966.02.642a12.12 12.12 0 0 0-.303-.182l-.032-1.051.057.028.153.458.105.105zm.064 2.15a4.994 4.994 0 0 0-.3-.099c.098 3.304.195 6.608.291 9.913h.297c-.095-3.271-.19-6.542-.288-9.813zm.046 11.747-.033-1.144c.117.046.216.085.301.12l.022.782-.29.242zm.306.285a2.432 2.432 0 0 1-.303-.184c.097 3.397.193 6.795.288 10.193l.295-.052c-.092-3.32-.185-6.638-.28-9.957zM373.085 1.833c-.115 18.653-.221 37.307-.318 55.961a5.154 5.154 0 0 0-.299.36c.097-18.776.204-37.551.32-56.326.087.003.182.004.297.005zm-.872 499.847h-.297c.026 9.604.054 19.208.085 28.812l.295-.409c-.03-9.468-.058-18.935-.083-28.403zM366.316 1.528c-.371 20.02-.711 40.04-1.019 60.061a17.25 17.25 0 0 1-.299.162c.308-20.075.648-40.149 1.021-60.223h.297zm-2.635 498.837-.298-.098c.1 12.555.213 25.109.339 37.664l.293-.377c-.124-12.396-.235-24.792-.334-37.189zM359.743.153c-.643 20.674-1.229 41.348-1.758 62.022h-.297c.529-20.674 1.115-41.348 1.758-62.022h.297zm-4.549 491.568-.299-.177c.234 18.635.514 37.269.841 55.902.088-.192.184-.385.287-.58a11264.81 11264.81 0 0 1-.829-55.145zm-4.799-425.488a7451.5 7451.5 0 0 0-.284 8.134 24.8 24.8 0 0 0-.305.227c.852-24.814 1.82-49.628 2.902-74.441h.298a8026.332 8026.332 0 0 0-2.593 65.576l-.105.418.087.086zm-4.361-64.858h-.12a6248.134 6248.134 0 0 0-4.257 86.759c.104-.163.21-.325.318-.488.114-2.688.229-5.376.346-8.063-.133-.315-.174-.662.041-.96a6249.703 6249.703 0 0 1 3.86-77.436l-.188.188zM339.47.458l.103-.014.017-.257-.3.03-.027.394-.002.04a5129.23 5129.23 0 0 0-5.559 94.048 3.3 3.3 0 0 0 .293.09A5133.92 5133.92 0 0 1 339.561.618V.61l.004-.057-.095-.096zm.122-.305v.004l-.3.037.003-.041h.297zm.011-.153-.002.03-.301.05.005-.08h.298zm-6.714.392-.3.02-.09 1.116h.298l.092-1.136zm-6.712.392-.301.038-.013.137c.099-.01.2-.021.301-.03l.013-.145zm-7.007.59-.078.736.302-.037.075-.698h-.299zm-6.262.816-.305.05-.033.28.306-.056.032-.274zm-6.786 1.49-.108.818-.317.13.118-.89.307-.059zm.135-1.017-.074.563-.31.072.079-.588c.102-.017.204-.032.305-.047zm-6.727 1.115-.31.062-.263 1.808.313-.09.26-1.78zm-6.869 1.154c-.051.01-.101.022-.152.033a11.3 11.3 0 0 1-.029.181l.313-.07.028-.18-.16.036zm-.262.728.067-.425.313-.076-.231 1.452-.312.073.161-1.017.056-.015-.054.008zm-6.51 1.367-.245.082-.192 1.113.317-.091.193-1.12-.073.016zm-.841 3.553.076-.45.323-.124-.089.522a5.786 5.786 0 0 1-.31.052zm-5.736-2.377-.147.79-.325.125.15-.808.322-.107zm.177-.948-.126.675-.038.014-.285.095.137-.732.312-.052zm-6.728 1.605-.176.052-.224 1.12.324-.102.213-1.07h-.137zm-.676 2.562.11-.554.32-.09-.122.616-.308.028zm-.655 3.313.264-1.34.323-.102-.266 1.347c-.105.032-.212.064-.321.095zm-6.129-.153-.228 1.079-.335.15.24-1.14a10.5 10.5 0 0 1 .323-.089zm.344-1.621-.215 1.013-.148.08-.189.073.236-1.109.316-.057zm.386-1.814-.054.253-.316.058.047-.221.323-.09zm.322-1.505-.049.228a1.743 1.743 0 0 0-.339.166l.068-.317.32-.077zm-6.972 2.882-.066.289-.332.12.067-.294c.111-.04.222-.078.331-.115zm.336-1.472-.325.09-.019.085-.007.03-.09.39.327-.094.086-.377.005-.02.023-.104zm-6.666 1.72a.597.597 0 0 1-.01.041l-.339.136.021-.083.328-.094zm-6.673 1.729-.332.094-.071.275.334-.102.069-.267zm-6.69 1.957-.335.099-.05.183.336-.103.049-.18zm-6.63 1.9-.341.108a8.68 8.68 0 0 1-.044.152l.343-.114.042-.147zm-.426.403.027-.094.348-.134-.036.124-.339.104zm-.072.251.03-.106.337-.096-.025.088-.342.114zm-6.319 2.486-.349.127-.067.22h.073l-.105.105-.049.163.336-.084.161-.53zm-.929 2.046.26-.862.348-.124-.268.887-.34.1zm-7.3 5.016-.197.624-.35.124.159-.507c.158-.096.285-.175.388-.241zm.457-1.452-.119.378-.36.152.128-.404.351-.126zm-1.272 3.903-.384.385a1070.16 1070.16 0 0 0-1.159 3.74l.321-.153.039-.006c.41-1.331.823-2.662 1.238-3.994l-.055.028zm-5.769-.434c-.207.624-.412 1.25-.618 1.874l-.38.207.632-1.922.366-.16zm1.767-5.307c-.227.674-.452 1.349-.677 2.023l-.369.168c.228-.686.458-1.372.688-2.058.119-.046.238-.09.358-.133zm-6.796 2.803-.37.157-.64 1.825.366-.147.644-1.835zm-6.885 3.02-.378.166-.468 1.272-.13.355c-1.42 3.88-2.814 7.761-4.182 11.642l.322-.02c1.385-3.929 2.798-7.857 4.237-11.785l.124-.34.475-1.29zm-6.81 3.046-.385.174-.528 1.373-.08.21-.368.962.208-.042-.254.162c-1.438 3.77-2.851 7.54-4.238 11.31l.065-.014.325-.184a1002.52 1002.52 0 0 1 4.647-12.367l.07-.183.538-1.4zm-6.953 3.441-.247.139-.46 1.146.387-.166.493-1.23-.173.111zm-1.637 3.618.556-1.397.4-.2-.601 1.508-.355.089zm-6.448 2.857-.386.154a969.761 969.761 0 0 0-2.414 5.877l.394-.179c.794-1.95 1.596-3.901 2.406-5.852zm-5.507.105-.118.272-.029.023-.408.234.137-.313.418-.215zm-6.875 3.362-.047.102-.433.233.052-.113.428-.222zm-7.035 3.762-.042.09-.446.247.035-.075.453-.262zm-.048.1-.46.278c-36.374 76.756-58.71 153.527-67.007 230.302l.307-.07c8.316-76.843 30.703-153.683 67.16-230.51zm-7.305 4.498-.479.301c-38.448 78.284-61.536 156.569-69.262 234.854l.303-.045c7.744-78.37 30.89-156.739 69.438-235.11zm-7.446 4.745-.497.32c-38.695 75.979-62.142 151.945-70.338 227.911l.32-.196c8.23-76.002 31.735-152.01 70.515-228.035zm-7.328 4.765-.514.337c-39.35 74.422-63.255 148.834-71.715 223.245l.347-.42c8.518-74.378 32.478-148.761 71.882-223.162zm-7.586 4.983-.53.348C86.633 146.377 62.061 222.02 54.295 297.662l.36-.597c7.85-75.553 32.476-151.112 73.881-226.69zm-7.959 5.594-.58.421C68.45 167.62 42.674 258.857 42.674 350.098c0 8.855.242 17.711.728 26.567l.311.246a484.81 484.81 0 0 1-.742-26.813c0-91.371 25.866-182.747 77.606-274.129zM112.2 82.28l-.643.514C59.683 171.904 33.742 261 33.742 350.098c0 6.51.139 13.02.416 19.53l.307.223a459.104 459.104 0 0 1-.425-19.753c0-89.259 26.05-178.524 78.16-267.818zm-9.346 7.872-.728.638c-51.54 86.455-77.313 172.917-77.313 259.385 0 3.853.051 7.706.154 11.56l.31.481a435.146 435.146 0 0 1-.167-12.041c0-86.668 25.912-173.342 77.744-260.023zm-8.978 7.01-.119.193c-.257.228-.513.457-.768.686l.137-.225c.248-.218.497-.436.75-.654zm-1.32 2.158-.767.689c-46.18 76.097-71.291 152.198-75.326 228.294l.232 1.276c3.834-76.74 29.119-153.495 75.86-230.259zm-10.738 9.672-.788.71C41.47 173.89 17.753 238.083 9.884 302.279l.194.865c7.795-64.713 31.707-129.43 71.74-194.152zM68.515 122.67l-1.273 1.698c-34.96 57.148-56.65 114.298-65.066 171.446l.181.816c8.434-58.099 30.6-116.207 66.5-174.322l-.342.362zm-26.726 36.519-.533.356a508.15 508.15 0 0 0-3.924 7.326l-.263.559-.663 1.857a507.321 507.321 0 0 1 5.383-10.098zM.399 261.816c6.28-24.834 15.212-49.667 26.796-74.499l1.467-2.423C16.52 210.522 7.204 236.15.715 261.777a9.897 9.897 0 0 1-.316.039zm.327 44.954c.174-1.487.358-2.974.551-4.461l.37-.542a377.286 377.286 0 0 0-.702 5.683l-.207-.545-.012-.135zm6.698 24.142.262.748c.108-2.292.237-4.583.386-6.874l-.007-.008.065-.881c.073-1.086.15-2.173.233-3.259l-.255-.562a392.419 392.419 0 0 0-.684 10.836zm44.941 47.087.256-.769a511.324 511.324 0 0 1-.679-20.562l-.3-.241a512.8 512.8 0 0 0 .723 21.572zm8.856 1.457.318.371a538.64 538.64 0 0 1-.668-16.817l-.295.074c.132 5.458.347 10.915.645 16.372zm9.39 9.05.297-.012a568.895 568.895 0 0 1-1.214-28.557l-.296.064c.166 9.502.57 19.003 1.213 28.505zm9.349 6.953.308.135a599.284 599.284 0 0 1-1.662-54.512l-.298.075c-.27 18.1.28 36.201 1.652 54.302zm9.172 5.684.348.619a633.112 633.112 0 0 1-1.632-26.807l-.252-.07-.047.029a633.34 633.34 0 0 0 1.583 26.229zm10.123 14.824.32.202a668.27 668.27 0 0 1-2.808-40.756l-.296.043a668.457 668.457 0 0 0 2.784 40.511zm9.519 7.622c.095-.012.193-.026.294-.042a721.726 721.726 0 0 1-1.044-10.727l-.337-.436c.332 3.735.695 7.47 1.087 11.205zM126.57 487.1a774.299 774.299 0 0 1-2.036-11.436c.097-.021.194-.04.292-.058a783.106 783.106 0 0 0 2.047 11.501c-.101 0-.202-.002-.303-.007zm5.209 25.643a784.434 784.434 0 0 1-4.139-19.999c.081-.077.168-.153.258-.228a787.11 787.11 0 0 0 4.286 20.685 22.068 22.068 0 0 1-.405-.458zm9.924 8.946c.132.131.263.264.392.397a817.966 817.966 0 0 1-10.62-57.689l-.265.24a817.913 817.913 0 0 0 10.493 57.052zm12.641 21.871c.14.144.276.291.41.442-7.671-32.47-13.414-64.938-17.231-97.404a5.754 5.754 0 0 1-.252.399c3.798 32.186 9.489 64.374 17.073 96.563zM166.147 561c.114.059.229.115.347.169-12.461-51.146-20.393-102.293-23.795-153.439h-.298c3.397 51.09 11.313 102.18 23.746 153.27zm7.722.767c.103-.001.205-.001.305.001-12.143-52.515-19.765-105.031-22.867-157.546l-.285.2c3.108 52.448 10.724 104.897 22.847 157.345zm8.623 4.596c.139.16.276.322.413.485-12.518-55.897-20.193-111.788-23.023-167.679-.112.711-.041 1.708.071 3.214h-.201c2.949 54.658 10.529 109.317 22.74 163.98zm9.513 9.098c.108.037.217.071.327.104-12.589-57.053-20.4-114.112-23.432-171.175l-.282.296c3.041 56.93 10.836 113.856 23.387 170.775zm25.952 75.814c.952 2.106 1.465 3.867 1.561 5.563a1222.95 1222.95 0 0 0 6.198 21.153c.297.605.582 1.219.867 1.833-28.165-92.489-44.477-184.995-48.938-277.504l-.305-.17c3.99 83.047 17.529 166.093 40.617 249.125zm19.238 45.629c.12.071.243.139.372.203-.572-1.894-1.14-3.789-1.702-5.684l-.503-.773h.273c-27.874-94.054-44.202-188.091-48.985-282.124l-.299-.016c4.887 96.123 21.835 192.249 50.844 288.394zm8.728 9.821-.293-1.006.374.222.343 1.175c-.121-.118-.24-.228-.361-.336l-.063-.055zm1.574 5.344c-.365-1.229-.727-2.458-1.088-3.687.122.066.244.132.367.196.359 1.22.719 2.44 1.081 3.66l-.36-.169zm8.167 8.892c-.337-1.18-.672-2.36-1.006-3.54.092-.044.184-.085.275-.123.368 1.305.739 2.61 1.112 3.916a126.04 126.04 0 0 1-.381-.253zm7.192 5.847c.126.091.253.181.381.27-29.063-106.803-45.773-213.606-50.13-320.409l-.299-.062c4.347 106.734 21.03 213.467 50.048 320.201zm7.005 4.783.219.119a1618.481 1618.481 0 0 1-5.837-23.352 6.63 6.63 0 0 1-.39-.35 1628.134 1628.134 0 0 0 5.848 23.424l.16.159zm6.356 3.443.352.19c-.775-3.194-1.541-6.388-2.297-9.582a13.491 13.491 0 0 0-.408-.432 1770.1 1770.1 0 0 0 2.353 9.824zm6.619 3.585c.063.062.125.124.228.207-.49-2.149-.976-4.298-1.458-6.447-.099-.089-.223-.197-.378-.332.484 2.165.973 4.33 1.467 6.495l.141.077zm5.869 2.052.319.071c-.237-1.112-.472-2.224-.706-3.335a11.43 11.43 0 0 0-.323-.092c.236 1.119.472 2.237.71 3.356zm5.886.392c.06-.06.12-.127.179-.197l-.259-1.321a21.743 21.743 0 0 0-.336-.17l.333 1.695.083-.007zm-12.899-73.56.056.345-.16.88c-.189-1.176-.376-2.352-.563-3.527.143.434.252.835.361 1.236.095.348.19.696.306 1.066zm5.305-8.741c.102 0 .202-.001.3-.004-10.467-73.33-17.204-146.659-20.211-219.989l-.302-.12c3.004 73.371 9.742 146.742 20.213 220.113zm5.69-10.406c.07-.245.14-.483.209-.716-8.507-67.689-14.112-135.378-16.813-203.067a9.189 9.189 0 0 1-.304-.171c2.708 67.985 8.344 135.969 16.908 203.954zm6.504-6.039c.105.018.206.033.303.043a2635.514 2635.514 0 0 1-13.253-164.806 5.015 5.015 0 0 1-.296.035 2634.475 2634.475 0 0 0 13.246 164.728zm6.227-10.641c.092-.068.185-.136.279-.202a2924.903 2924.903 0 0 1-11.047-158.725l-.302-.108a2925.223 2925.223 0 0 0 11.07 159.035zm5.493-21.51.275-.297a3278.286 3278.286 0 0 1-7.865-132.51c-.096.008-.194.016-.296.026a3280.765 3280.765 0 0 0 7.886 132.781zm7.291-5.374.297-.004a3731.303 3731.303 0 0 1-6.473-125.156l-.3-.064a3730.185 3730.185 0 0 0 6.476 125.224zm7.521-3.48.28-.299a4323.612 4323.612 0 0 1-5.26-118.117c-.1-.054-.2-.108-.302-.161a4321.315 4321.315 0 0 0 5.282 118.577zm7.759-.394.298-.008a5124.254 5124.254 0 0 1-4.218-110.141c-.099.062-.196.123-.292.18a5127.715 5127.715 0 0 0 4.212 109.969zm7.55-4.094c.095-.083.191-.171.286-.263a6249.146 6249.146 0 0 1-3.304-106.499l-.3-.121c.8 35.626 1.906 71.253 3.318 106.883zm7.454-12.708c.079-.245.17-.486.276-.738a8023.47 8023.47 0 0 1-2.154-92.392l-.297-.001c.545 31.042 1.27 62.086 2.175 93.131zM332.758 2.015a4342.726 4342.726 0 0 0-6.175 87.406 4.621 4.621 0 0 1-.241-.053h-.053a4339.931 4339.931 0 0 1 6.161-87.23l.014-.18.023-.278h.266l.033-.016-.021.265-.007.086zm-6.791 1.016a3751.25 3751.25 0 0 0-6.995 85.425 10.425 10.425 0 0 1-.281-.239 3748.823 3748.823 0 0 1 6.973-85.136l.045-.484.135-1.434.303-.051-.126 1.34-.054.579zm-13.109 66.937c-.233 2.715-.463 5.43-.689 8.146l-.246-.62c.204-2.445.411-4.89.621-7.335.107-.058.212-.12.314-.191zm-.022-3.192c.099-.022.2-.039.302-.051.549-6.316 1.116-12.632 1.701-18.947-.097.018-.197.03-.302.035a3277.92 3277.92 0 0 0-1.701 18.963zm2.178-24.065c.094.002.193.005.298.01l.191-2.023a29.115 29.115 0 0 0-.296-.025l-.193 2.038zm.312-3.298h.178l.114.076.193-2.02a1.63 1.63 0 0 1-.261-.398l-.224 2.342zm-6.753 1.06-.206 1.94a58.783 58.783 0 0 0-.295-.037l.182-1.713a2.98 2.98 0 0 1 .319-.19zm7.355-7.317c.087-.021.188-.041.305-.062.875-9.012 1.788-18.024 2.739-27.036l-.263.053h-.042a3345.67 3345.67 0 0 0-2.739 27.045zm2.949-29.031.206-1.933.304-.046-.211 1.979h-.299zm-6.274-1.222h.22l.043-.359-.263.053-.043.007-.038.312c.027-.005.054-.01.081-.013zm.196.204c-.101.013-.203.025-.304.036l-.253 2.127.321-.184.236-1.979zm-.765 3.92a3188.93 3188.93 0 0 0-.946 8.097h.299c.312-2.7.627-5.398.946-8.097h-.299zm-6.077-2.1-.147 1.111-.309.072.149-1.131.307-.051zm-.528 3.017-.176.054a976.91 976.91 0 0 0-.312 2.39h.299l.32-2.444h-.131zm-1.042 6.721.474-3.666h.3c-.166 1.273-.33 2.547-.494 3.82h-.002v-.154h-.278zM285.7 472.472c-.188-4.013-.367-8.026-.536-12.038h.297c.169 3.991.347 7.982.534 11.974a5.81 5.81 0 0 1-.295.064zM299.235 5.799l-.434 2.997c-.106.045-.212.088-.319.13l.332-2.295a4.7 4.7 0 0 0 .203-.062l-.19-.032.086-.59.322-.148zm-6.794 1.49a1935.53 1935.53 0 0 0-.549 3.475l-.319.117.562-3.562.306-.03zM268.477 130.46c-.521 4.716-1.025 9.431-1.513 14.146l-.302.03c.489-4.725.994-9.45 1.517-14.176h.298zm.554-4.952-.147 1.308-.325.232.174-1.552.298.012zm9.042-69.291c-.203 1.374-.405 2.75-.606 4.124h-.3c.2-1.375.402-2.75.606-4.124h.3zm7.247-45.47-.547 3.218-.317.093.547-3.221.317-.09zm-7.273 4.328-.061.336a6.31 6.31 0 0 1-.305.015l.034-.185.332-.166zM265.282 48.12c.094-.142.189-.28.284-.416.684-3.857 1.381-7.713 2.092-11.57l-.299-.021a1803.067 1803.067 0 0 0-4.641 26.307l.246.328a1812.47 1812.47 0 0 1 2.524-14.605l-.206-.023zm2.757-14.05-.163.882-.327.13.213-1.15.277.138zm3.246-17.05c-.174.889-.347 1.777-.519 2.666a2.907 2.907 0 0 0-.336.173l.536-2.76.319-.08zm-6.786 1.372c-.226 1.084-.452 2.168-.676 3.252l-.31.028.071-.339.324-.405-.261.1c.179-.862.358-1.725.539-2.587l.313-.049zm-1.316 6.355h-.303c-.235 1.143-.468 2.287-.7 3.43l.329-.125c.223-1.102.448-2.203.674-3.305zm-.873 4.286-.305.007a1684.054 1684.054 0 0 0-6.069 31.54l.336-.186a1681.53 1681.53 0 0 1 6.038-31.361zm-6.824 35.698-.192-.611c-.887 4.925-1.752 9.849-2.594 14.773l.267.204a1675.01 1675.01 0 0 1 2.519-14.366zm-4.838 28.297-.021-.453-.238.193a1635.778 1635.778 0 0 0-8.586 59.899l.294.049a1635.34 1635.34 0 0 1 8.551-59.688zm-11.386 83.955c-.203 1.864-.403 3.728-.6 5.592l-.333.323c.193-1.834.39-3.668.589-5.502l.344-.413zm-5.446-22.534c-.218 1.643-.432 3.286-.644 4.929-.089-.076-.179-.152-.269-.232.202-1.565.406-3.13.613-4.695a2.331 2.331 0 0 1 .3-.002zm7.921-52.798a1529.067 1529.067 0 0 0-7.656 50.805l-.301.008a1531.407 1531.407 0 0 1 7.637-50.707l.32-.106zm-8.143 3.695a1440.199 1440.199 0 0 0-7.549 47.265h-.3a1441.39 1441.39 0 0 1 7.549-47.278l.3.013zm-6.799-3.771a1357.795 1357.795 0 0 0-9.032 52.817l-.373.48a1356.037 1356.037 0 0 1 9.089-53.227l.316-.07zm-9.97 59.143-.314.093a1338.62 1338.62 0 0 0-3.12 22.791l.301-.01c.977-7.625 2.022-15.25 3.133-22.874zm7.037-80.22a1286.324 1286.324 0 0 0-14.857 78.771l-.337.232a1286.752 1286.752 0 0 1 14.949-79.274l.245.27zm-15.685 84.145-.327.169a1263.402 1263.402 0 0 0-3.577 25.302l.323-.175a1248.553 1248.553 0 0 1 3.581-25.296zm-8.407 2.266-.151.945-.343.267.205-1.291.289.079zm16.812-85.492a1216.652 1216.652 0 0 0-16.609 84.223l-.303.009a1217.939 1217.939 0 0 1 16.672-84.511l.24.28zm2.258-10.75c.212-.873.425-1.746.64-2.618l.312-.375.098-.05c-.254 1.032-.506 2.064-.757 3.096l-.293-.053zm7.243-1.373.12-.093.229-.097c.32-1.394.644-2.787.969-4.18h-.305c-.34 1.457-.678 2.913-1.013 4.37zm6.552-27.172c.105-.006.209-.014.312-.022 1.01-4.002 2.04-8.005 3.089-12.007l-.35.164a1359.47 1359.47 0 0 0-3.051 11.866zm3.508-13.603.288-.106.053-.023c.262-.992.524-1.984.788-2.976-.125.055-.24.105-.347.15-.262.986-.523 1.97-.782 2.955zm-6.038.229-.52 1.864-.176.093-.178.07.514-1.844.36-.183zm.866-3.084-.538 1.912c-.11.044-.225.087-.345.131l.683-2.429.317-.073-.153.459h.036zm7.32-5.197.084-.314.345-.142h.001l-.088.326-.342.13zm.212-.786.342-.126.393-1.448-.339.113-.396 1.461zm6.599-1.412.18-.703.347-.155-.197.768-.33.09zm-.403 1.583.248-.976.357-.195-.278 1.09-.327.081zm-1.425 5.655.343-1.371h.306l-.306 1.221-.343.15zm-.021 1.31-.337.123c-.253 1.02-.506 2.038-.757 3.056l.072-.055.298-.204.724-2.92zm-1.24 5.02-.346.164c-.835 3.41-1.656 6.819-2.464 10.228l.309-.017c.82-3.459 1.653-6.916 2.501-10.375zm4.041 9.627a1510.46 1510.46 0 0 1 3.272-14.348l.331-.11a1508.336 1508.336 0 0 0-3.303 14.48l-.3-.022zm-8.518 9.197c-.338 1.466-.673 2.932-1.006 4.399l-.318.057c.323-1.424.649-2.848.977-4.272.129-.07.245-.131.347-.184zm-3.199 14.213-.314.045c-.365 1.664-.727 3.328-1.086 4.992l.135.054.092.3c.387-1.797.778-3.594 1.173-5.39zm-7.728 36.094c.819-4.272 1.66-8.545 2.522-12.818l.249.269c-.805 3.993-1.591 7.987-2.359 11.98l-.412.569zm11.587-21.954a1471.497 1471.497 0 0 1 4.328-21.28l.345-.195a1469.913 1469.913 0 0 0-4.461 21.938l-.212-.463zm6.555 3.609.3.008c.337-1.863.677-3.725 1.021-5.587l-.239-.345c-.365 1.975-.725 3.95-1.082 5.924zm1.533-8.354.266.193c2.736-14.69 5.69-29.38 8.863-44.07l-.286-.081a1571.585 1571.585 0 0 0-8.843 43.958zm9.132-45.293.339-.162c.273-1.256.547-2.511.823-3.767l-.333.13c-.278 1.266-.554 2.532-.829 3.799zm1.462-6.672.008-.001h.297c.338-1.528.679-3.056 1.022-4.583l-.346.183c-.329 1.467-.656 2.934-.981 4.401zm-5.248-3.649-.292 1.225-.34.142.304-1.273.328-.094zm.524-2.182-.148.616a33.66 33.66 0 0 1-.158.02l-.167.062.132-.551.341-.147zm.258-1.068-.13.54-.346.165.14-.58.336-.125zm.2-.825-.113.466-.338.135.117-.486.334-.115zm.152-1.443.208-.042.034-.137-.089.026-.153.153zm-1.845 8.505-.419.479-.007.027.315-.037.111-.47zm-1.338 4.384.311-1.327.315-.045-.29 1.237-.206.078-.13.057zm-3.957-9.795.336-.112.141-.546-.338.12-.139.538zm.629-1.247-.078.3-.335.112.075-.291.338-.121zm-6.71 2.002-.17.625-.346.139.179-.656.337-.108zm.075-.274-.001.005-.286.086.287-.091zm-6.797 2.467c-.239.827-.476 1.654-.712 2.481a3.175 3.175 0 0 1-.317.027l.687-2.394.342-.114zm-8.765 9.597-.36.168c-.322 1.087-.642 2.173-.961 3.26l.385-.257.936-3.171zm-1.556 5.29h-.31l-.296 1.016.492-.626.114-.39zm-4.177 14.648c-.873 3.138-1.733 6.275-2.579 9.413l-.352.164c.841-3.122 1.696-6.244 2.564-9.366l.367-.211zm5.529 2.046a1342.68 1342.68 0 0 1 2.121-8.036l.387-.296c-.681 2.544-1.354 5.088-2.018 7.633l-.49.7zm3.01-11.339.335-.103.632-2.328-.099-.022-.218.057a780.11 780.11 0 0 0-.65 2.396zm1.194-4.387.284.086.139-.507-.371.23-.052.191zm-15.58 11.638a1354.61 1354.61 0 0 0-.968 3.28l-.37.207c.324-1.106.65-2.211.978-3.317l.36-.17zm3.135-10.387a1259.88 1259.88 0 0 0-1.723 5.665l-.386.252c.576-1.913 1.157-3.827 1.744-5.74l.365-.177zm-5.179 17.356-.368.203c-.843 2.91-1.674 5.822-2.492 8.732l.16-.096.271-.339a1177.95 1177.95 0 0 1 2.429-8.5zm-6.434 21.945c.621-2.317 1.251-4.634 1.889-6.951l.3.03c-.634 2.3-1.259 4.601-1.877 6.902l-.312.019zm-1.371 6.322-.343.137c-.393 1.502-.784 3.005-1.171 4.507.105-.008.21-.017.314-.028.397-1.538.797-3.077 1.2-4.616zm-3.776 14.808-.549.98c-.664 2.693-1.318 5.385-1.961 8.077l.223.345c.748-3.134 1.51-6.268 2.287-9.402zm-3.182 13.182-.607 1.619-.129.225c-7.818 33.547-13.986 67.093-18.502 100.639l.326-.194c4.598-34.096 10.902-68.192 18.912-102.289zm-28.211 241.619a2.602 2.602 0 0 0-.178-.006l-.119-.004c.005 3.271.025 6.542.061 9.813.1-.028.199-.053.296-.077-.035-3.242-.055-6.484-.06-9.726zm8.686 9.448c-.016-1.578-.028-3.157-.037-4.735l.297-.011c.009 1.583.021 3.166.037 4.749a2.943 2.943 0 0 0-.297-.003zm8.765-1.021c.113-.032.213-.062.296-.09-.014-1.741-.025-3.483-.032-5.224a11.507 11.507 0 0 0-.298-.14c.007 1.818.018 3.636.034 5.454zm10.6-166.239h.164l.173-.266c1.009-7.402 2.09-14.804 3.242-22.206l-.343.275a1185.335 1185.335 0 0 0-3.236 22.197zm-5.637-16.193.327-.387c5.098-31.918 11.607-63.834 19.526-95.75l-.363.232c-10.127 40.856-17.943 81.716-23.446 122.576l.952-4.764c1.025-7.365 2.124-14.73 3.299-22.095l-.295.188zm-4.624 31.717c.133-1.022.267-2.044.403-3.067l.152 1.116-.251 1.916-.304.035zm8.596 151.448c-.017-2-.03-4-.037-5.999l.296-.073c.008 2.024.021 4.048.038 6.072h-.297zm1.691 48.637a5.078 5.078 0 0 0-.302-.102c4.77 98.349 21.427 196.698 49.972 295.046l.554.841c-28.691-98.595-45.432-197.19-50.224-295.785zm-36.894-58.099c.005 4.324.039 8.649.101 12.973a7.46 7.46 0 0 1-.301-.26c-.06-4.23-.092-8.461-.097-12.692l.16-.013.137-.008zm8.997-135.159.415-.832c4.307-30.873 10.091-61.746 17.354-92.621l-.357.221c-7.301 31.079-13.105 62.156-17.412 93.232zM195.346 82.56l.563-2.03.069-.023.258-.043-.523 1.883c-.12.072-.242.143-.367.213zm2.335-8.316h.309a1094.52 1094.52 0 0 1 2.929-10.089l-.402.315a1089.26 1089.26 0 0 0-2.836 9.774zm10.417-33.423a1116.409 1116.409 0 0 0-6.588 21.343l-.378.23c2.093-7.04 4.263-14.081 6.51-21.122l.243-.331.213-.12zm-9.416 9.98a1056.7 1056.7 0 0 0-4.332 13.547l-.258-.172c1.379-4.412 2.789-8.824 4.232-13.236l.358-.14zm-5.909 17.63.687-2.225.297.046-.56 1.813-.424.367zm-.805 3.649a942.306 942.306 0 0 0-1.573 5.225 2.16 2.16 0 0 1-.252-.197c.488-1.636.981-3.272 1.478-4.907l.347-.121zm-14.64 53.277-.318.046-.101.414.034 1.114.385-1.574zm-3.688 14.218c.31-1.344.622-2.688.937-4.033.198-.405.395-.813.593-1.223-7.617 32.291-13.525 64.582-17.723 96.873l-.386.665c3.905-30.214 9.306-60.428 16.203-90.642l.274-.366.102-1.274zm17.479-84.807a1010.47 1010.47 0 0 0-6.021 18.226l-.111.028-.169-.128a1005.806 1005.806 0 0 1 5.861-17.754l.44-.372zm-26.836 93.537-.316.045c-8.151 35.017-14.181 70.035-18.088 105.052l.315-.137c3.91-34.987 9.94-69.973 18.089-104.96zm20.949-94.134a982.96 982.96 0 0 0-7.236 20.788l-.183.049-.129-.053a973.962 973.962 0 0 1 7.201-20.696l.255-.027.092-.06zm-22.093 69.373-.297-.044c-12.531 45.378-21.298 90.757-26.301 136.138l.332-.297c5.008-45.267 13.764-90.533 26.266-135.797zm9.067-49.857a899.58 899.58 0 0 0-2.639 7.524l-.365.146a943.434 943.434 0 0 1 2.757-7.864l.247.194zm7.211-19.592a939.366 939.366 0 0 0-7.087 19.241l-.293-.061a940.022 940.022 0 0 1 7.314-19.841l.066.661zm1.477-4.678.425-.277.023-.06-.363.117-.085.22zm-6.307 2.148c-.142.348-.283.697-.423 1.045l-.388.166.423-1.047.388-.164zm-.749 1.854-.387.164a902.711 902.711 0 0 0-12.347 32.488l.427-.31a902.576 902.576 0 0 1 12.307-32.342zm-5.184-1.784c.093 0 .186-.004.278-.01l.259-.605-.537.615zm-2.531 6.644a867.078 867.078 0 0 0-13.488 34.332l-.446.35a867.19 867.19 0 0 1 13.484-34.375l.45-.307zm.22-1.295.174-.155.61-1.68-.015.004-.769 1.83zm-1.146-9.272a877.134 877.134 0 0 0-3.246 7.208l-.476.34a875.985 875.985 0 0 1 3.299-7.336l.423-.212zm-3.746 8.333-.304-.045c-33.418 75.425-53.982 150.838-61.692 226.249l.241.563c7.667-75.582 28.252-151.167 61.755-226.767zm-56.452 283.289c.049-3.182.12-6.363.212-9.545l.298-.014a697.494 697.494 0 0 0-.212 9.482 5.437 5.437 0 0 1-.298.077zm13.002 89.044c-.41-3.858-.789-7.716-1.138-11.575l.3.014a736.84 736.84 0 0 0 1.154 11.725l-.316-.164zm-3.996-92.753s.103.038.279.114c.045-2.342.102-4.684.17-7.025l-.298.013a755.069 755.069 0 0 0-.167 6.894l.016.004zm12.082 86.242a871.468 871.468 0 0 1-.43-4.822l.299-.002c.139 1.615.283 3.229.432 4.843l-.301-.019zm-3.278-78.877c.104.019.202.032.297.039.029-3.249.079-6.499.149-9.749a28.38 28.38 0 0 1-.293-.176 775.945 775.945 0 0 0-.153 9.886zm8.825 18.59c-.016-1.1-.029-2.201-.04-3.301l.297-.01c.012 1.129.025 2.258.041 3.387a2.174 2.174 0 0 0-.298-.076zm4.575 75.956c-.475-4.455-.913-8.91-1.315-13.365l.189-.263.076-.107c.438 4.874.919 9.748 1.443 14.622a34.003 34.003 0 0 0-.124-.279l-.269-.608zm-4.653-89.474c.098.02.197.037.297.052.007-2.627.026-5.253.057-7.88a4.81 4.81 0 0 1-.296-.079 833.925 833.925 0 0 0-.058 7.907zm8.931-.127.298-.006c.006-2.617.025-5.234.055-7.851a4.32 4.32 0 0 0-.296-.089c-.031 2.649-.05 5.298-.057 7.946zm16.17-226.364c-14.137 48.099-23.811 96.198-29.021 144.297l-.198.096-.138.242c5.204-48.243 14.895-96.486 29.075-144.729l.282.094zm-5.31-5.691c-20.518 64.581-32.549 129.169-36.093 193.758l-.181-.136-.085-.428c3.586-64.492 15.631-128.982 36.133-193.465l.226.271zm-43.342 168.499.261.392c5.35-57.237 17.727-114.47 37.132-171.702l-.349.106c-19.333 57.065-31.681 114.133-37.044 171.204zm73.718-237.1c.572-1.47 1.149-2.94 1.729-4.41l.393-.184c-.583 1.475-1.162 2.95-1.737 4.425l-.385.17zm9.608 5.951c.425-1.24.853-2.481 1.283-3.722l1.037-2.077c-.496 1.422-.99 2.844-1.479 4.265l-.315.244h.231l-.348 1.012-.409.278zm8.326-6.343c.304-.917.61-1.835.916-2.752l.387-.22c-.296.887-.592 1.773-.886 2.66l-.417.312zm4.464-12.276c-.283.82-.564 1.64-.845 2.461l-.384.206c.285-.836.572-1.672.861-2.508l.368-.159zm-.071-.703.384-.203.406-1.17-.381.19-.409 1.183zm.564-1.63.373-.168.379-1.086-.377.178-.375 1.076zm.46-1.32.216-.1.16-.076.263-.754-.363.138-.276.792zm6.287-1.127.065-.195h.275l-.34.195zm-11.708 18.014-.444.398-.364 1.105.329-.047.479-1.456zm12.367 146.821c.227-1.896.458-3.793.693-5.689.104-.08.214-.161.33-.245-.252 2.027-.499 4.055-.741 6.083l-.282-.149zm42.135 520.968c-28.79-102.356-45.493-204.689-50.107-307.008.088-.143.181-.284.279-.422 4.593 102.571 21.337 205.156 50.23 307.764a11.469 11.469 0 0 0-.402-.334zm-33.317-524.937.309-.09c.156-1.359.315-2.718.476-4.077l-.3.003a1179.53 1179.53 0 0 0-.485 4.164zm.827-7.03c.1.02.197.041.291.063.299-2.484.604-4.969.916-7.454l-.256-.342a1284.06 1284.06 0 0 0-.951 7.733zm2.13-16.87c.318-2.405.643-4.81.974-7.216l.297.023c-.32 2.327-.635 4.654-.943 6.981l-.328.212zm6.664 14.947-.3.016a1497.55 1497.55 0 0 0-.627 5.6l.315-.144c.201-1.824.405-3.648.612-5.472zm32.84 523.966c-23.323-97.091-37.094-194.183-41.313-291.275l.293-.1c3.933 90.628 16.19 181.257 36.771 271.885h-.18c.109.181.208.362.304.542a1585.186 1585.186 0 0 0 4.36 18.652c-.081.099-.16.198-.235.296zm-31.81-282.721-.305-.168c4.051 88.353 15.484 176.709 34.298 265.08h.304c-18.806-88.315-30.238-176.615-34.297-264.912zm35.2 270.533-.224-1.038c.195.198.269.31.343.458a3.477 3.477 0 0 0-.119.58zm6.839 30.263c-.888-3.768-1.762-7.537-2.622-11.305.111.024.219.05.322.077.587 2.571 1.181 5.142 1.781 7.713-.085.06-.169.117-.248.17l.263.397.182.275c.206.883.413 1.765.621 2.647-.098.012-.198.02-.299.026zm-3.604-46.068c-15.661-81.513-25.477-163.014-29.45-244.513.1.076.203.151.308.227 3.98 81.413 13.794 162.83 29.44 244.259l-.298.027zm6.342-.815h.006c.093.03.197.055.309.076a1959.143 1959.143 0 0 1-3.174-18.369 12.025 12.025 0 0 1-.349-.285 1913.688 1913.688 0 0 0 3.208 18.578zm-3.499-20.318h.301c-12.2-73.186-20.03-146.371-23.49-219.556l-.301-.074c3.458 73.21 11.288 146.42 23.49 219.63zm-16.74-486.404h.299c.227-2.322.459-4.643.695-6.965l-.331.311c-.225 2.218-.446 4.436-.663 6.654zm2.437-23.381.33-.282c.522-4.712 1.062-9.425 1.62-14.138l-.318.154c-.562 4.755-1.107 9.511-1.632 14.266zm2.005-17.395.311-.095c.252-2.098.507-4.196.766-6.294l-.288-.086c-.267 2.158-.53 4.316-.789 6.475zm-4.782-19.631c-.202 1.427-.401 2.854-.599 4.28l-.309.067c.224-1.62.451-3.24.68-4.86l.228.513zm-1.072 7.723-.264-.265a1751.066 1751.066 0 0 0-4.49 35.597l.322-.193a1748.772 1748.772 0 0 1 4.432-35.139zm14.921-53.845a1971.37 1971.37 0 0 1 1.936-12.17h.221l.074.043a1885.69 1885.69 0 0 0-1.865 11.708l-.041.013-.325.406zm-3.627 91.424-.327.29c-.484 4.939-.95 9.877-1.397 14.815h.299c.455-5.035.931-10.07 1.425-15.105zm13.931 502.562c-11.384-73.546-18.685-147.101-21.9-220.659l.294-.06c3.216 73.601 10.522 147.199 21.917 220.787l-.311-.068zm-7.508-485.979c.087.098.177.204.272.318.392-4.753.799-9.506 1.222-14.259a7.412 7.412 0 0 0-.297-.022 2183.97 2183.97 0 0 0-1.197 13.963zm1.872-21.404.129-1.389c.146.438.057.932-.129 1.389zm6.26 23.551c.173-.735.275-1.767.242-3.222l-.242 3.222zm.492-6.487c.127-1.646.256-3.292.386-4.938.092.003.191.004.298.006-.115 1.453-.229 2.906-.342 4.36-.14.204-.253.391-.342.572zm-3.098-152.864c.108-.024.214-.049.316-.074.183-1.004.367-2.009.553-3.014l-.325.124-.544 2.964zm27.821-9.694.29.073.028-.21-.311.084a.968.968 0 0 1-.007.053zm3.741 27.868-.022.206v-.142a1.32 1.32 0 0 1 .022-.064zm-1.968 18.534-.315.163-.34 3.32c.102.033.198.066.289.1.121-1.194.243-2.389.366-3.583zm-1.255 9.438.316-3.15a6.45 6.45 0 0 1 .315-.16 2966.04 2966.04 0 0 0-.42 4.187 42.861 42.861 0 0 0-.211-.877zM87.44 339.618a627.72 627.72 0 0 0-.082 8.083l-.298.283c.01-2.775.037-5.55.082-8.326l.298-.04zm184.835-327.63-.032.162-.245-.082.277-.08zM366.028 1.07h.003-.003zm.298-.036-.003.14-.139-.105.142-.035zm6.463.556.035.014c.089.035.177.07.262.106l.002-.341a3.329 3.329 0 0 1-.297-.047l-.002.268zm44.667 70.182-.235-4.297.3.057c.093 1.685.186 3.37.277 5.054l-.018-.023a26.67 26.67 0 0 1-.324-.791zm7.638 2.013h.297c-.223-3.48-.45-6.96-.682-10.44a6.898 6.898 0 0 0-.213.205l-.068.05c.226 3.396.448 6.79.666 10.185zm7.706 2.468c.096.01.197.021.3.03-.322-4.375-.652-8.75-.99-13.126a12.377 12.377 0 0 1-.302-.057c.338 4.384.669 8.769.992 13.153zm7.155-4.382c.096-.194.18-.36.255-.506a3135.87 3135.87 0 0 0-.92-10.565h-.298c.327 3.69.648 7.38.963 11.07zm7.3-1.616.299.009a151.54 151.54 0 0 0-.065-.673 41.467 41.467 0 0 0-.224-.4l-.136-.241.126 1.305zm-5.671-56.274.072.622a27.315 27.315 0 0 0-.31-.094l-.077-.659.315.131zm-.186-1.596.068.58-.311-.1-.064-.555.307.075zm-6.938-1.72a87.546 87.546 0 0 0-.307-.083l.012.121.309.093-.014-.13zm-6.934-1.758a72.98 72.98 0 0 0-.304-.064l.098 1.072.307.096-.033-.368-.045-.019.043.007-.066-.724zm-6.964-2.272.064.805-.303-.057-.064-.81.074.015.229.047zm-6.848-1.215c-.123-.02-.223-.034-.301-.045l.002.03c.101.025.202.048.303.07a.993.993 0 0 1-.004-.055zm-.191 1.587-.034-.513c.098.026.199.05.302.07l.035.526a89.575 89.575 0 0 1-.303-.083zm3.6 58.71c-.102-1.838-.205-3.677-.309-5.515l.293-.073c.109 1.919.217 3.838.323 5.757l-.307-.169zm-7.289-3.81.114 2.456a4.15 4.15 0 0 1-.319-.458l-.078-1.7c.08-.11.176-.209.283-.297zm10.612-52.985.305.092-.013-.158-.001-.023-.048-.603-.305-.082.049.61.001.017.012.147zM420.372 8c.115.03.215.058.305.083l-.027-.346a13.127 13.127 0 0 1-.301-.038l.023.301zm-6.916-1.99.303.072-.027-.39-.003-.047-.002-.031-.302-.065.002.033.004.053.025.375zm.315.264.002.025.007.097.001.021a7.546 7.546 0 0 1-.305-.105v-.008l-.003-.04h.036a3.746 3.746 0 0 1 .262.01zm13.611 4.319c.1.02.201.039.303.054l-.033-.369-.309-.114.039.429zm6.937 1.592c.166.023.245.032.302.035l-.01-.102a2.182 2.182 0 0 0-.318-.185l.026.252zm-.049-.476c.105.02.204.044.306.074l-.069-.664-.309-.101.072.69zm61.215 395.746.287.366c.813-28 1.035-56 .665-84-.106.257-.202.494-.288.709a1988.44 1988.44 0 0 1-.664 82.925zm8.564 8.859c.097.073.193.144.29.214a1835.479 1835.479 0 0 0 .647-111.539c-.094.167-.189.341-.285.519.898 36.934.681 73.869-.652 110.806zm8.083 14.831c.095.046.192.092.291.137a1705.56 1705.56 0 0 0 1.165-132.348 8.507 8.507 0 0 1-.289.282c1.313 43.977.924 87.952-1.167 131.929zm8.513 5.171.27.523a1587.044 1587.044 0 0 0 1.275-145.707l-.298-.014c1.8 48.4 1.385 96.798-1.247 145.198zm7.801 12.922c.093.091.187.177.28.261a1481.658 1481.658 0 0 0 1.131-180.218 28.689 28.689 0 0 0-.298-.01 1481.579 1481.579 0 0 1-1.113 179.967zm8.707 1.572c.07-.112.141-.229.211-.349a1387.14 1387.14 0 0 0-.056-201.338 6.946 6.946 0 0 0-.258.547 1386.778 1386.778 0 0 1-.011 201.157l.114-.017zm8.917-4.651c.1-.004.199-.01.299-.017a1300.785 1300.785 0 0 0-.084-193.318 14.027 14.027 0 0 1-.299-.013 1300.512 1300.512 0 0 1 .084 193.348zm8.708-.112.298.01a1222.42 1222.42 0 0 0-.062-192.848c-.097.04-.192.083-.288.129a1222.101 1222.101 0 0 1 .052 192.709zm8.481 2.601.298.004a1151.182 1151.182 0 0 0-.124-198.539c-.067.271-.144.539-.229.799a1150.93 1150.93 0 0 1 .055 197.736zm9.075-4.511c.107-.097.214-.189.322-.276a1085.58 1085.58 0 0 0-.882-197.218l-.299-.007a1085.348 1085.348 0 0 1 .859 197.501zm8.778-1.002.292.064c6.058-66.506 5.625-133.019-1.296-199.535l-.295.036c6.918 66.483 7.351 132.962 1.299 199.435zm8.72-3.062c.101-.018.202-.033.303-.046 5.966-64.246 5.533-128.489-1.298-192.734l-.088.034-.229-.206c6.852 64.318 7.29 128.634 1.312 192.952zm7.43 12.039c.09.054.183.106.281.158 7.726-69.275 7.589-138.549-.413-207.824l-.297.019c7.996 69.216 8.139 138.432.429 207.647zm-42.599 212.824c1.127-3.1 2.236-6.199 3.329-9.299l.385-.198a995.108 995.108 0 0 1-3.406 9.518c-.103-.006-.206-.014-.308-.021zm5.919-.405.366-.127c8.384-21.908 15.892-43.815 22.523-65.721a55.093 55.093 0 0 0-.85 1.776 980.084 980.084 0 0 1-2.413 7.792l-.008.06-.025.042a976.262 976.262 0 0 1-19.593 56.178zm5.956-.957c.106-.001.214-.003.323-.007 15.913-39.486 28.82-78.972 38.72-118.459l-.523.863c-9.876 39.201-22.716 78.402-38.52 117.603zm6.508-2.434.519-.467c52.992-125.819 73.776-251.676 62.354-377.525a15.881 15.881 0 0 1-.303-.048c11.451 126.02-9.406 252.048-62.57 378.04zm8.322-6.993.491-.385c53.405-123.107 74.338-246.177 62.8-369.231a7.578 7.578 0 0 0-.316-.192c11.594 123.245-9.397 246.507-62.975 369.808zm8.085-6.078.482-.349c53.53-119.392 74.855-238.753 63.972-358.12l-.292.06c10.884 119.463-10.503 238.918-64.162 358.409zm7.904-5.599.484-.339c56.37-121.495 77.565-243.028 63.587-364.551l-.316-.142c14.031 121.683-7.221 243.374-63.755 365.032zm7.959-5.562.498-.351c56.57-117.968 78.209-235.906 64.918-353.85l-.321-.195c13.357 118.126-8.342 236.243-65.095 354.396zm8.194-5.911.525-.392c46.202-93.512 69.305-187.007 69.305-280.506 0-20.729-1.136-41.459-3.407-62.188a30.808 30.808 0 0 1-.316-.154 570.22 570.22 0 0 1 3.425 62.342c0 93.622-23.176 187.247-69.532 280.898zm8.665-6.801.582-.487c46.341-91.161 69.514-182.349 69.514-273.553 0-19.185-1.026-38.37-3.076-57.556l-.364-.6a540.889 540.889 0 0 1 3.142 58.156c0 91.359-23.264 182.709-69.798 274.04zm11.002-11.137.903-1.108c44.746-87.292 67.121-174.57 67.121-261.852 0-11.199-.368-22.399-1.105-33.598-.121-.344-.244-.688-.367-1.031a511.53 511.53 0 0 1 1.175 34.629c0 87.643-22.574 175.29-67.727 262.96zm14.302-17.541.877-1.075c40.228-79.756 60.762-159.516 61.596-239.279-.089-.516-.184-1.053-.283-1.609-.576 80.65-21.304 161.304-62.19 241.963zm14.915-18.293.84-1.03c29.891-60.703 47.747-121.4 53.565-182.098l-.231-.712c-5.781 61.274-23.839 122.551-54.174 183.84zm-23.507 50.621a699.663 699.663 0 0 0 13.767-22.469c.419-.525.839-1.049 1.262-1.568a701.045 701.045 0 0 1-14.558 23.852 3.376 3.376 0 0 1-.471.185zm10.863-10.485c.537-.642 1.081-1.301 1.631-1.974 7.746-12.028 14.966-24.057 21.659-36.087a4.965 4.965 0 0 0-.31-.055c-7.071 12.706-14.731 25.411-22.98 38.116zm79.298-187.438a441.666 441.666 0 0 1-4.464 20.441c-.275.761-.57 1.547-.89 2.369a440.969 440.969 0 0 0 5.887-27.245c-.016.391-.052.788-.089 1.186-.156 1.145-.303 2.225-.444 3.249zm6.113-43.369c-.078.889-.16 1.777-.244 2.666l-.277-.222c.378-4.01.697-8.02.959-12.03v4.241l-.083 1.08-.223-.223c0 .024-.003.106-.01.244-.024.552-.089 2.002-.122 4.244zm-13.002-104.79.611 2 .13.86.151 1.006.027.181.001.011a.584.584 0 0 0-.032-.038l.073.313.116.794-.002.003.005.016a444.862 444.862 0 0 1 2.865 24.412 97.166 97.166 0 0 1-.275-1.055l-.195-.819a444.913 444.913 0 0 0-2.906-23.968l-.02-.134c-.105-.708-.213-1.416-.322-2.123l-.09-.586-.025-.163a150.59 150.59 0 0 0-.112-.71zm-20.711-57.151c.261.571.519 1.144.776 1.724l.304 1.131c4.866 18.218 8.649 36.437 11.346 54.656l-.31-.071c-2.783-18.763-6.718-37.528-11.803-56.292l-.313-1.148zm-17.579-33.563c-.238-.41-.478-.819-.718-1.228l.381 1.155c9.785 29.773 16.824 59.545 21.117 89.316l.308.057c-4.227-29.358-11.123-58.716-20.687-88.073l-.401-1.227zm-16.448-25.835.645.91.025.069c13.51 37.521 22.885 75.041 28.127 112.56l-.308-.057c-5.291-37.816-14.783-75.635-28.479-113.456l-.01-.026zm-13.436-18.124c13.702 36.339 23.726 72.678 30.073 109.017l-.307-.032c-6.39-36.556-16.505-73.114-30.343-109.673l.577.688zm34.531 139.477a6.062 6.062 0 0 1-.316-.143l.185 1.578c.11.074.212.131.32.181l-.189-1.616zm10.693 21.938a519.043 519.043 0 0 0-3.169-28.868l.306.04a521.04 521.04 0 0 1 2.954 26.36l-.032-.049c-.066.392-.047.812-.029 1.236.019.431.039.866-.03 1.281zm10.275 27.764c.104.267.211.532.319.797a490.243 490.243 0 0 0-4.765-56.154l-.307-.048a490.026 490.026 0 0 1 4.753 55.405zm9.126 13.829c0-22.547-1.662-45.094-4.987-67.642l.31.066c3.316 22.525 4.974 45.051 4.974 67.576 0 6.669-.145 13.338-.436 20.007l-.233-1.52c.248-6.162.372-12.324.372-18.487zm-14.926 144.116c7.836-23.655 13.742-47.31 17.717-70.965l.001.063c.081.081.163.172.244.27-3.912 23.19-9.678 46.38-17.298 69.569l-.664 1.063zm19.512-82.568c.099.013.198.019.298.017a438.973 438.973 0 0 0 4.344-61.488 435.87 435.87 0 0 0-1.035-30.007 76.202 76.202 0 0 0-.388-1.291 435.767 435.767 0 0 1 1.126 31.298c0 20.49-1.448 40.98-4.345 61.471zm-81.519-279.028c15.701 40.983 26.964 81.963 33.789 122.942a2.775 2.775 0 0 0-.321-.123c-6.868-41.157-18.214-82.317-34.04-123.48l.572.661zm-11.647-13.17c16.395 42.483 28.259 84.961 35.592 127.439l-.243-.324-.161-.269c-7.38-42.481-19.293-84.964-35.74-127.45l.552.604zm-8.536-5.102c13.759 36.763 24.299 73.527 31.619 110.294l-.082-.059-.271-.194c-7.326-36.707-17.863-73.412-31.611-110.116l.345.075zm-7.161-1.29c13.409 37.546 23.632 75.089 30.67 112.631l-.345-.231c-7.043-37.481-17.262-74.965-30.658-112.451l.333.051zm31.35 116.312-.414-.618a691.65 691.65 0 0 1 2.959 17.432c.15.395.306.784.482 1.16a693.972 693.972 0 0 0-3.027-17.974zm6.997 50.777c-.19-1.798-.387-3.597-.591-5.396l.304.044c.293 2.587.571 5.173.835 7.759-.178-.804-.363-1.606-.548-2.407zm-45.449-168.06c13.484 39.618 23.601 79.237 30.351 118.858a31.048 31.048 0 0 1-.453-.891c-6.755-39.337-16.83-78.672-30.225-118.007l.327.04zm-6.934-.793c10.809 33.379 19.351 66.761 25.627 100.145l-.3-.177-.04-.024c-6.277-33.328-14.814-66.654-25.61-99.979l.323.035zm-7.149-.715c9.611 31.211 17.344 62.423 23.198 93.635l-.373-.376c-5.85-31.096-13.565-62.193-23.146-93.289l.321.03zm25.059 103.919a8.713 8.713 0 0 1-.337-.197 801.586 801.586 0 0 1 1.935 11.568c.122.127.242.255.362.383a813.337 813.337 0 0 0-1.96-11.754zm-26.004-82.155a885.75 885.75 0 0 1 14.244 62.701l-.358-.294a884.996 884.996 0 0 0-14.216-62.491l.33.084zm16.127 73.011c-.126-.131-.25-.263-.372-.397.73 4.123 1.428 8.246 2.096 12.369l.344.266a851.364 851.364 0 0 0-2.068-12.238zm-23.224-71.829c6.337 25.358 11.561 50.716 15.672 76.074a5.273 5.273 0 0 0-.344-.265c-4.085-25.138-9.263-50.276-15.536-75.415.076-.146.145-.277.208-.394zM605.54 243.05l-.275.069c8.655 70.098 8.804 140.196.445 210.293l.297.014c8.361-70.123 8.21-140.246-.451-210.37l-.016-.006zm8.707 210.779c7.75-61.325 8.626-122.644 2.629-183.959.105.067.211.133.318.198 5.974 61.255 5.091 122.514-2.65 183.779l-.297-.018zm-6.775 44.196a851.46 851.46 0 0 0 5.546-34.892l.46-1.171.002-.007a852.928 852.928 0 0 1-5.811 36.647 8.004 8.004 0 0 1-.197-.577zm-23.598 98.292a921.554 921.554 0 0 0 8.145-28.847l.545-.898a923.719 923.719 0 0 1-8.62 30.545 26.459 26.459 0 0 1-.07-.8zm23.158-58.346c.305-1.262.607-2.525.906-3.787.203-.59.353-.964.502-1.338.073-.134.144-.268.213-.402a840.509 840.509 0 0 1-1.542 6.463 9.16 9.16 0 0 1-.079-.936zm3.901-16.904c.014.433.02.865.018 1.297 18.343-82.824 23.457-165.649 15.342-248.474l-.31-.122c8.092 82.433 3.076 164.866-15.05 247.299zm18.446-287.953c.097-.04.192-.075.285-.104a930.342 930.342 0 0 0-.648-4.014h-.301c.225 1.373.447 2.746.664 4.118zm-1.175-7.185a725.826 725.826 0 0 0-.783-4.566c.111.062.222.123.334.182.262 1.503.519 3.007.772 4.51l-.242-.115-.081-.011zm-5.484 19.766.303.023c-.32-2.383-.651-4.767-.993-7.15a9.929 9.929 0 0 1-.292.052c.338 2.358.665 4.717.982 7.075zM578.57 137.67a970.408 970.408 0 0 1 12.182 61.321 11.061 11.061 0 0 0-.346-.269 970.095 970.095 0 0 0-12.178-61.212c.112.062.227.115.342.16zm-8.375-3.521a1020.52 1020.52 0 0 1 12.559 66.5c-.09.009-.188.02-.295.033a1018.78 1018.78 0 0 0-12.047-64.182.962.962 0 0 0 .018-.081l-.064-.128c-.154-.696-.308-1.392-.464-2.088.1-.02.199-.04.293-.054zm-7.814-2.203a1072.383 1072.383 0 0 1 12.781 71.714l-.324-.169a1073.672 1073.672 0 0 0-14.134-77.887c.124.113.249.209.368.289.393 1.794.782 3.588 1.165 5.382-.07.074-.138.159-.202.256l.346.415zm-6.22 7.132a1124.799 1124.799 0 0 1 12.096 75.655l-.297.025a1124.772 1124.772 0 0 0-12.105-75.7c.108.006.21.013.306.02zm-5.835 10.72a1185.971 1185.971 0 0 1 9.934 68.809h-.21c0 .183-.009.375-.024.57a1185.4 1185.4 0 0 0-9.982-69.267c.091-.045.185-.082.282-.112zm11.399 85.254a1196.04 1196.04 0 0 0-.544-5.316l.357.557c.161 1.549.32 3.099.475 4.648l-.288.111zm-17.708-75.337a1248.243 1248.243 0 0 1 9.741 78.782l-.286.135a1248.1 1248.1 0 0 0-9.752-78.894c.097-.01.196-.018.297-.023zm-2.381 43.6a1319.763 1319.763 0 0 1 3.851 39.368l-.286.155a1314.937 1314.937 0 0 0-3.877-39.636c.104.037.208.074.312.113zm-8.792-3.411a1401.88 1401.88 0 0 1 4.116 44.55 12.036 12.036 0 0 0-.334-.469 1400.459 1400.459 0 0 0-4.084-44.105l.302.024zm-8.44-.393a1497.537 1497.537 0 0 1 3.617 41.183l-.304-.081a1501.456 1501.456 0 0 0-3.615-41.138l.228.036h.074zm-6.267 22.778c.218 2.71.43 5.42.634 8.13-.114-.188-.228-.376-.34-.565-.182-2.401-.37-4.802-.563-7.203.084-.12.173-.241.269-.362zm-1.065-9.183c.106.135.216.267.333.398-.386-4.477-.79-8.954-1.213-13.431a8.477 8.477 0 0 1-.293.06c.409 4.324.8 8.649 1.173 12.973zm-7.191-66.916.1.006-.162-.485.062.479zm-2.977-21.974c.12.137.241.279.36.424-.578-4.067-1.172-8.135-1.781-12.202l-.304-.025c.589 3.934 1.164 7.869 1.725 11.803zm-9.095-11.648c-.106-.04-.212-.083-.318-.126.149 1.063.296 2.127.442 3.191.106.023.21.049.311.079l-.435-3.144zm1.863 13.769a5.63 5.63 0 0 0-.285.112 1720.61 1720.61 0 0 1 2.501 19.959c.046-.105.155-.173.271-.239-.791-6.611-1.62-13.221-2.487-19.832zm-7.308 5.323-.122.077c.256 2.152.508 4.305.757 6.457.108.01.207.019.302.026a1913.35 1913.35 0 0 0-.781-6.658 4.13 4.13 0 0 0-.156.098zm1.662 15.612-.163-1.468c.074-.07.167-.137.276-.206l.238 2.147a2.164 2.164 0 0 1-.272-.327l-.079-.146zm-.285-5.206.128 1.132c-.116-.374-.187-.748-.128-1.132zm5.215-21.119.198 1.477c-.335-.641-.482-1.008-.372-1.266a.52.52 0 0 1 .174-.211zm16.718 10.894c-.383-2.6-.774-5.2-1.171-7.8.101.017.204.033.308.047.423 2.769.838 5.538 1.245 8.307l-.122-.177a50.26 50.26 0 0 0-.26-.377zm11.325 23.544a1430.683 1430.683 0 0 0-3.694-24.705c.095.121.183.251.262.392l.106.036a1425.926 1425.926 0 0 1 3.633 24.327l-.307-.05zm-7.076-83.084-.452-2.107c.044-.03.087-.055.127-.075a2.145 2.145 0 0 1-.087-.305c-.026-.151-.015-.31.046-.628l.687 3.195-.321-.08zm1.726 8.187-.426-2.04c.113.04.224.09.334.143a1373.235 1373.235 0 0 1 3.668 18.158 4.802 4.802 0 0 0-.308-.03 1391.178 1391.178 0 0 0-3.141-15.614l.111-.445a4.656 4.656 0 0 1-.238-.172zm13.325 74.481a1351.355 1351.355 0 0 0-2.663-16.99l.419.724c.893 5.489 1.751 10.977 2.575 16.465a8.056 8.056 0 0 1-.331-.199zm6.603-8.508-.365-2.178c.109.075.222.147.337.215l.334 1.989a5.335 5.335 0 0 1-.306-.026zm7.796-.366-.474-2.649h.302c.17.943.338 1.886.505 2.829l-.333-.18zm-7.312-39.134c.3 1.417.598 2.835.892 4.252a2.42 2.42 0 0 1-.299.024c-.297-1.431-.597-2.862-.9-4.293l.307.017zm11.232 19.339c-.642-3.107-1.297-6.214-1.966-9.32l.175-.115-.237-1.579c.828 3.821 1.636 7.641 2.424 11.462l-.396-.448zm-4.605-21.274c.155.186.297.365.425.533a1179.952 1179.952 0 0 0-8.948-36.858c-.041-.04-.079-.076-.112-.11a.687.687 0 0 1 .075-.032 1194.269 1194.269 0 0 0-4.435-16.574l-.358-.18c4.887 17.74 9.338 35.48 13.353 53.221zm9.701 10.269c-.582-2.536-1.174-5.072-1.775-7.607l.31.019c.62 2.617 1.23 5.234 1.83 7.851a3.536 3.536 0 0 0-.365-.263zm10.986 16.556-.194-.854c.12.241.232.471.333.686l-.139.168zm-1.133-4.962a1052.723 1052.723 0 0 0-4.507-18.741l.312.021c1.6 6.4 3.137 12.8 4.611 19.2a28.143 28.143 0 0 0-.365-.421l-.051-.059zm6.687-3.131a.632.632 0 0 1 .081-.171.403.403 0 0 1 .157-.102l-.564-2.266-.356-.535c.074 0 .149.002.223.004-.179-.713-.358-1.426-.539-2.14a1.351 1.351 0 0 1-.294.05c.436 1.72.866 3.44 1.292 5.16zm-6.936-26.48.382.267c-2.525-9.15-5.187-18.3-7.987-27.45a54.07 54.07 0 0 0-.386-.247 1030.536 1030.536 0 0 1 7.991 27.43zm-8.828-30.148c.113.019.222.04.331.064a989.41 989.41 0 0 0-1.325-4.253c-.131-.09-.263-.179-.395-.267.467 1.485.93 2.97 1.389 4.456zm-8.875-8.84c.594 1.97 1.182 3.94 1.764 5.909l-.361-.17c-.584-1.976-1.174-3.952-1.771-5.928l.368.189zm7.165 3.364c.132.089.264.178.396.269l-.302-.959-.018-.01-.373-.242.297.941zm-7.767-5.351.205.673a10.244 10.244 0 0 1-.392-.267 91.974 91.974 0 0 0-.149-.492h.013c.129.033.231.059.323.086zm-.436-1.434.086.28-.38-.224-.09-.295c.116.07.231.142.344.213l.04.026zm7.533 4.668.059.041.153.153.223.195-.135-.428a.622.622 0 0 1-.088-.072l-.294-.148.082.259zm8.068 5.137-.007-.019.406.281.001.006-.4-.268zm8.246 5.684.415.298.005.013-.411-.285a7.478 7.478 0 0 1-.009-.026zm-7.811-5.312-.401-.268.257.783c.18.198.353.405.517.623l-.373-1.138zm.565 1.724-.395-.252.184.562c.147.09.273.135.357.136l-.146-.446zm9.224 9.448c-.649-1.942-1.304-3.883-1.966-5.825l.413.292a951.229 951.229 0 0 1 1.965 5.83c-.137-.1-.275-.198-.412-.297zm1.041 3.136-.58-1.75h.235l.094.047.599 1.81a3.934 3.934 0 0 0-.348-.107zm-7.399-3.679c-.155-.13-.297-.251-.426-.362h-.001a989.271 989.271 0 0 1 8.156 27.045c.119.048.234.091.346.131a985.264 985.264 0 0 0-8.075-26.814zm14.003 24.486a946.962 946.962 0 0 0-5.91-18.696c.126.066.251.129.374.189a945.142 945.142 0 0 1 5.86 18.552l-.324-.045zm2.058 6.163h-.204c.341 1.147.68 2.294 1.016 3.44l.317.027a843.516 843.516 0 0 0-1.053-3.569l-.076.102zm1.657 6.343a871 871 0 0 0-.803-2.759l.317.027c.286.979.571 1.957.854 2.936a10.296 10.296 0 0 0-.368-.204zm4.275 15.258a925.917 925.917 0 0 0-2.681-9.685h.107l.261.209a906.29 906.29 0 0 1 2.825 10.233 20.446 20.446 0 0 1-.512-.757zm2.071-17.521.321.03a908.506 908.506 0 0 0-11.18-33.886l-.424-.312a909.079 909.079 0 0 1 11.283 34.168zm7.145.712a870.375 870.375 0 0 0-9.767-28.437l.438.337a870.945 870.945 0 0 1 9.653 28.134l-.324-.034zm6.928.789a839.588 839.588 0 0 0-7.823-21.949l.47.413a832.444 832.444 0 0 1 7.681 21.577l-.328-.041zm7.095.963a804.525 804.525 0 0 0-5.17-14.041l.491.456a805.33 805.33 0 0 1 5.012 13.636l-.333-.051zm7.149 1.273a819.667 819.667 0 0 0-2.218-5.845l.498.469a739.677 739.677 0 0 1 2.065 5.452 25.647 25.647 0 0 0-.345-.076zm-47.635-43.63a102.92 102.92 0 0 0-.412-.288l-.008-.024.414.295.006.018zm-8.27-5.747.037.112a122.71 122.71 0 0 1-.403-.273l-.036-.109.402.27zm-22.153-9.877-.361-.18a1150.653 1150.653 0 0 1 4.598 16.37c.118.08.244.168.379.262a1136.155 1136.155 0 0 0-4.616-16.452zm13.45 52.288a1109.979 1109.979 0 0 0-4.232-17.204l.435.506a1119.635 1119.635 0 0 1 4.108 16.72 32.483 32.483 0 0 1-.311-.022zm7.123.493c-.698-2.785-1.408-5.57-2.13-8.356.132.104.262.21.389.317.696 2.687 1.38 5.374 2.053 8.061a32.69 32.69 0 0 1-.312-.022zm-11.231-42.347c2.327 7.905 4.557 15.81 6.69 23.716a23.62 23.62 0 0 1-.464-.578 1086.664 1086.664 0 0 0-6.603-23.367l.377.229zm-18.376-19.398-.364-.194.003.01.082.29.361.186-.079-.28-.003-.012zm-5.777 2.67c5.05 19.25 9.617 38.5 13.699 57.75l-.307-.017a1248.734 1248.734 0 0 0-13.759-57.962l.367.23zm-1.856-6.995.048.179-.355-.176-.05-.186.357.183zm-7.415-3.635-.35-.167.032.123.351.174-.033-.13zm-.205.398-.006-.021.162.08.19.095.003.014-.349-.168zm-7.101-3.61.018.075-.165-.072-.177-.078-.024-.1.348.175zm-7.641-3.351.338.145.009.036-.337-.14-.01-.041zm2.784 12.333-.366-1.65c.127.103.25.197.366.28l.337 1.517a11.13 11.13 0 0 1-.337-.147zm.309 1.4-.02-.088c.095.014.201.019.309.02l.068.307-.357-.238zm.601 2.743-.345-1.578.342.172.385 1.764a7.186 7.186 0 0 0-.382-.358zm.507 2.33-.276-1.27c.101.013.198.012.305.002l.306 1.413a8.902 8.902 0 0 0-.335-.145zm.724 3.362-.575-2.672.341.174.468 2.175a2.343 2.343 0 0 1-.234.323zm-2.397-12.357.025.112a10.64 10.64 0 0 1-.096-.077l.071-.035zm7.302 3.99-.373-1.587.362.24a1397.917 1397.917 0 0 1 5.256 23.169c-.146-.214-.297-.44-.452-.675a1410.628 1410.628 0 0 0-4.772-21.062l-.021-.086zm-.295-2.55.26 1.102a5.676 5.676 0 0 0-.359-.226l-.277-1.173c.079.06.161.125.243.191l.133.105zm6.966 2.415a26.63 26.63 0 0 0-.075-.039 1314.717 1314.717 0 0 1 13.698 60.879l.306.014a1313.22 1313.22 0 0 0-13.619-60.577 4.051 4.051 0 0 1-.31-.277zm14.223 63.857-.476-2.401.305.014c.161.803.32 1.606.479 2.409l-.308-.022zm8.02 44.74-.179-1.108c.171.292.303.612.375.974-.065.052-.13.097-.196.134zm-6.396 8.676a3.84 3.84 0 0 1-.336-.242c.293 2.018.58 4.036.863 6.054.088.25.176.477.265.654l-.172.013c.441 3.158.87 6.316 1.288 9.474.157.378.304.746.445 1.106a1348.454 1348.454 0 0 0-2.353-17.059zm-7.519 4.341c.274 2.071.544 4.143.809 6.214a5.57 5.57 0 0 1-.305-.043c-.27-2.102-.543-4.204-.822-6.307l.08-.03c.02 0 .085.049.194.133l.044.033zm-9.335-9.397.199 1.539a2.83 2.83 0 0 1-.295.033l-.172-1.322c.083-.074.171-.156.268-.25zm-1.4-8.268.117-.069a.487.487 0 0 1 .171-.015 1459.7 1459.7 0 0 0-1.278-9.193c-.105-.046-.211-.093-.319-.138.184 1.297.367 2.594.548 3.891.237.281.389.659.42 1.177h-.256c.201 1.449.4 2.898.597 4.347zm.965 4.957-.085.015.132.344-.047-.359zm-11.384-26.327.157 1.119c-.349-.479-.498-.876-.157-1.119zm147.824 111.382c-.158-.895-.318-1.79-.48-2.685.121.154.252.33.398.533.132.733.262 1.465.391 2.198a3.266 3.266 0 0 1-.309-.046zm67.487 46.553-.155-.653.179.675a.48.48 0 0 1-.024-.022zm-235.617 64.729c0-3.134-.006-6.268-.019-9.402.102-.084.201-.172.296-.264.014 3.241.021 6.482.02 9.723a40.433 40.433 0 0 0-.297-.057zm-.297 35.669.043-2.736.302-.302c-.022 1.431-.045 2.863-.07 4.294-.1-.418-.194-.837-.275-1.256z"/></g><defs><linearGradient id="b" x1="367.999" x2="367.999" y1="32.301" y2="654.191" gradientUnits="userSpaceOnUse"><stop stop-color="#ABA3FE"/><stop offset="1" stop-color="#191331"/></linearGradient><clipPath id="a"><path fill="#fff" d="M.4 0h735.2v703.2H.4z"/></clipPath></defs></svg>