<svg xmlns="http://www.w3.org/2000/svg" width="134" height="135" fill="none"><circle cx="60" cy="60" r="37.5" fill="#00041E" stroke="#9263B0"/><g filter="url(#a)"><path fill="#C46FF8" d="M51.273 60.475 59.548 43l8.275 17.475h-16.55z"/><path fill="#AD4AFB" d="m67.823 60.475-8.275 17.474-8.275-17.474h16.55zm8.273-9.099-8.274 9.099L59.547 43l16.55 8.376z"/><path fill="#BA49FF" d="m59.548 43-8.275 17.475-8.273-9.1L59.548 43z"/><path fill="#BA49FF" d="m43 69.574 8.273-9.1 8.274 17.475L43 69.574z"/><path fill="#C46FF8" d="m76.096 69.574-8.274-9.1-8.275 17.475 16.55-8.375z"/><path fill="#BD9DE4" d="M43 51.376v18.198l8.273-9.099L43 51.376z"/><path fill="#BA49FF" d="m76.095 51.375-8.275 9.1 8.275 9.098V51.375z"/></g><defs><filter id="a" width="133.097" height="134.949" x="0" y="0" color-interpolation-filters="sRGB" filterUnits="userSpaceOnUse"><feFlood flood-opacity="0" result="BackgroundImageFix"/><feColorMatrix in="SourceAlpha" result="hardAlpha" values="0 0 0 0 0 0 0 0 0 0 0 0 0 0 0 0 0 0 127 0"/><feOffset dx="7" dy="7"/><feGaussianBlur stdDeviation="25"/><feColorMatrix values="0 0 0 0 0.490196 0 0 0 0 0 0 0 0 0 0 0 0 0 0.15 0"/><feBlend in2="BackgroundImageFix" result="effect1_dropShadow_138_7486"/><feBlend in="SourceGraphic" in2="effect1_dropShadow_138_7486" result="shape"/></filter></defs></svg>