<svg xmlns="http://www.w3.org/2000/svg" width="1140" height="231" fill="none"><path fill="#F4F7FF" d="M324.057 230.8c-20.864 0-38.883-4.641-54.057-13.922-15.083-9.378-26.69-22.623-34.818-39.735-8.129-17.209-12.194-37.463-12.194-60.763 0-22.913 4.065-43.022 12.194-60.328 8.219-17.402 19.69-30.937 34.412-40.605C284.316 5.682 301.613.8 321.483.8c12.826 0 24.929 2.223 36.309 6.67 11.471 4.351 21.587 11.119 30.348 20.303 8.851 9.185 15.806 20.883 20.864 35.095 5.058 14.115 7.587 30.937 7.587 50.466v16.098H246.02V94.047h123.559c-.09-10.055-2.123-18.998-6.097-26.828-3.974-7.928-9.529-14.164-16.664-18.708-7.045-4.544-15.264-6.816-24.658-6.816-10.025 0-18.831 2.61-26.418 7.831-7.587 5.124-13.503 11.892-17.748 20.303-4.155 8.314-6.278 17.45-6.368 27.408v30.889c0 12.955 2.213 24.074 6.639 33.355 4.425 9.184 10.612 16.242 18.561 21.173 7.948 4.833 17.251 7.25 27.909 7.25 7.135 0 13.593-1.063 19.373-3.19 5.781-2.224 10.794-5.462 15.039-9.716 4.245-4.254 7.451-9.523 9.619-15.807l45.793 5.51c-2.891 12.955-8.4 24.267-16.529 33.935-8.039 9.571-18.335 17.015-30.89 22.333-12.554 5.22-26.915 7.831-43.083 7.831zm619.772-83.637L892 230.8h61.089l49.711-83.637c9.21-24.495 8.78-37.954 0-61.565L953.089.8H892l51.829 84.798c15.846 24.132 16.126 37.425 0 61.565zm142.771 0 52.59 83.637h-61.99l-50.44-83.637c-9.34-24.495-8.91-37.954 0-61.565L1077.2.8h61.99l-52.59 84.798c-16.08 24.132-16.37 37.425 0 61.565zm-616.45 0L418.32 230.8h61.09l49.713-83.637c9.203-24.495 8.772-37.954 0-61.565L479.41.8h-61.09l51.83 84.798c15.845 24.132 16.125 37.425 0 61.565zm142.767 0 52.592 83.637h-61.988l-50.445-83.637c-9.337-24.495-8.901-37.954 0-61.565L603.521.8h61.988l-52.592 84.798c-16.078 24.132-16.362 37.425 0 61.565zM49.67 97.766V230.8H0V3.756h47.474v38.58h2.47c4.848-12.712 12.578-22.813 23.188-30.302C83.835 4.544 97.052.8 112.786.8c14.544 0 27.213 3.35 38.007 10.051 10.885 6.701 19.3 16.408 25.246 29.12 6.037 12.712 9.01 28.134 8.919 46.266V230.8h-49.67V94.514c0-15.175-3.659-27.05-10.977-35.623-7.226-8.573-17.242-12.86-30.049-12.86-8.69 0-16.419 2.07-23.188 6.208-6.677 4.04-11.937 9.904-15.779 17.59-3.75 7.687-5.625 17-5.625 27.937zm771.872 36.067V.8h49.67v227.044h-47.474v-38.58h-2.47c-4.848 12.712-12.578 22.813-23.188 30.302-10.703 7.489-23.921 11.234-39.654 11.234-14.544 0-27.213-3.351-38.007-10.052-10.885-6.701-19.3-16.407-25.246-29.119-6.037-12.712-9.01-28.134-8.919-46.266V.8h49.67v136.285c0 15.176 3.659 27.05 10.977 35.624 7.226 8.573 17.242 12.859 30.048 12.859 8.69 0 16.42-2.069 23.189-6.208 6.677-4.04 11.937-9.903 15.779-17.59 3.75-7.686 5.625-16.998 5.625-27.937z"/></svg>