<svg xmlns="http://www.w3.org/2000/svg" width="118" height="90" fill="none"><rect width="116.694" height="89.428" x=".275" y=".275" fill="#141833" stroke="url(#a)" stroke-width=".55" rx="8.635"/><rect width="41.258" height="3.085" x="10.273" y="13.908" fill="#F1F1F1" stroke="url(#b)" stroke-width=".55" rx="1.543"/><rect width="17.627" height="3.085" x="10.273" y="20.27" fill="#F1F1F1" stroke="url(#c)" stroke-width=".55" rx="1.543"/><rect width="17.627" height="3.085" x="88.435" y="76.62" fill="#F1F1F1" stroke="url(#d)" stroke-width=".55" rx="1.543"/><mask id="g" fill="#fff"><path d="M58.168 78.163A27.267 27.267 0 0 1 36.11 34.87l9.927 7.212a14.996 14.996 0 0 0 12.132 23.811v12.27z"/></mask><path fill="url(#e)" stroke="url(#f)" stroke-width="1.1" d="M58.168 78.163A27.267 27.267 0 0 1 36.11 34.87l9.927 7.212a14.996 14.996 0 0 0 12.132 23.811v12.27z" mask="url(#g)"/><mask id="j" fill="#fff"><path d="M85.602 50.045a27.266 27.266 0 0 1-27.459 28.117l.093-12.27A14.997 14.997 0 0 0 73.338 50.43l12.264-.384z"/></mask><path fill="url(#h)" stroke="url(#i)" stroke-width="1.1" d="M85.602 50.045a27.266 27.266 0 0 1-27.459 28.117l.093-12.27A14.997 14.997 0 0 0 73.338 50.43l12.264-.384z" mask="url(#j)"/><g filter="url(#k)"><path fill="#5142FF" d="M36.026 35.004a27.265 27.265 0 0 1 49.408 15.08l-12.002.358a15.257 15.257 0 0 0-27.649-8.438l-9.757-7z"/></g><defs><linearGradient id="a" x1="87.446" x2="67.025" y1="-14.513" y2="-2.79" gradientUnits="userSpaceOnUse"><stop stop-color="#362793"/><stop offset=".199" stop-color="#292855"/><stop offset="1" stop-color="#0B0A33"/></linearGradient><linearGradient id="b" x1="41.18" x2="40.817" y1="13.046" y2="14.886" gradientUnits="userSpaceOnUse"><stop stop-color="#362793"/><stop offset=".199" stop-color="#292855"/><stop offset="1" stop-color="#0B0A33"/></linearGradient><linearGradient id="c" x1="23.555" x2="22.836" y1="19.409" y2="20.993" gradientUnits="userSpaceOnUse"><stop stop-color="#362793"/><stop offset=".199" stop-color="#292855"/><stop offset="1" stop-color="#0B0A33"/></linearGradient><linearGradient id="d" x1="101.718" x2="100.998" y1="75.758" y2="77.343" gradientUnits="userSpaceOnUse"><stop stop-color="#362793"/><stop offset=".199" stop-color="#292855"/><stop offset="1" stop-color="#0B0A33"/></linearGradient><linearGradient id="e" x1="58.168" x2="58.168" y1="23.631" y2="78.163" gradientUnits="userSpaceOnUse"><stop stop-color="#C622FF"/><stop offset="1" stop-color="#947DF2"/></linearGradient><linearGradient id="f" x1="71.575" x2="60.999" y1="14.835" y2="19.494" gradientUnits="userSpaceOnUse"><stop stop-color="#362793"/><stop offset=".199" stop-color="#292855"/><stop offset="1" stop-color="#0B0A33"/></linearGradient><linearGradient id="h" x1="58.349" x2="58.349" y1="23.631" y2="78.163" gradientUnits="userSpaceOnUse"><stop stop-color="#5236FF"/><stop offset="1" stop-color="#6858CD"/></linearGradient><linearGradient id="i" x1="71.755" x2="61.18" y1="14.835" y2="19.494" gradientUnits="userSpaceOnUse"><stop stop-color="#362793"/><stop offset=".199" stop-color="#292855"/><stop offset="1" stop-color="#0B0A33"/></linearGradient><filter id="k" width="75.808" height="53.211" x="22.826" y="10.432" color-interpolation-filters="sRGB" filterUnits="userSpaceOnUse"><feFlood flood-opacity="0" result="BackgroundImageFix"/><feColorMatrix in="SourceAlpha" result="hardAlpha" values="0 0 0 0 0 0 0 0 0 0 0 0 0 0 0 0 0 0 127 0"/><feOffset/><feGaussianBlur stdDeviation="6.6"/><feComposite in2="hardAlpha" operator="out"/><feColorMatrix values="0 0 0 0 0.290131 0 0 0 0 0.337455 0 0 0 0 1 0 0 0 1 0"/><feBlend in2="BackgroundImageFix" result="effect1_dropShadow_10148_325"/><feBlend in="SourceGraphic" in2="effect1_dropShadow_10148_325" result="shape"/></filter></defs></svg>