<svg xmlns="http://www.w3.org/2000/svg" width="275" height="218" fill="none"><rect width="249.455" height="193.752" x="25.209" y="23.343" fill="#121533" rx="8"/><path fill="#060A26" d="M31.318 51.62h237.237v161.285H31.318z"/><rect width="196.51" height="117.298" x="50.664" y="72.566" fill="#121533" rx="7.92"/><rect width="15.273" height="4.189" x="252.264" y="35.911" fill="#C4C4C4" rx="2.095"/><ellipse cx="33.864" cy="37.482" fill="#C4C4C4" rx="2.545" ry="2.618"/><ellipse cx="40.991" cy="37.482" fill="#C4C4C4" rx="2.545" ry="2.618"/><ellipse cx="48.118" cy="37.482" fill="#C4C4C4" rx="2.545" ry="2.618"/><path fill="#B53EFA" d="M193.362 140.588h13.254v12.724h-13.254z"/><path fill="#5236FF" d="M94.399 102.415h14.138v12.724H94.399z"/><path fill="#604CDE" d="M211.918 178.76h15.021v9.089h-15.021z"/><rect width="247.022" height="181.583" x=".632" y="1.171" stroke="#2B2B6F" stroke-dasharray="2.97 2.97" stroke-linejoin="round" stroke-width="1.1" rx="7.45"/><path stroke="#060A27" stroke-width=".99" d="M72.377 88.781v88.161m40.9-88.161v88.161m39.989-88.161v88.161m40.9-88.161v88.161m39.991-88.161v88.161M71.882 103.737h161.779M71.882 142.818h161.779M92.373 88.781v88.161m40.9-88.161v88.161m39.988-88.161v88.161m40.901-88.161v88.161m-142.28-53.209h161.779M71.882 162.814h161.779"/></svg>