<svg xmlns="http://www.w3.org/2000/svg" width="133" height="133" fill="none"><g filter="url(#a)"><rect width="122.72" height="122.72" x="4.72" y=".72" stroke="url(#b)" stroke-width="1.44" rx="61.36" shape-rendering="crispEdges"/><rect width="93.92" height="93.92" x="19.12" y="15.12" stroke="url(#c)" stroke-width="1.44" rx="46.96"/><rect width="62.24" height="62.24" x="34.96" y="30.96" stroke="url(#d)" stroke-width="1.44" rx="31.12"/><g filter="url(#e)"><path fill="#3F3986" fill-opacity=".02" d="m59.414 62.08 6.666-6.667 6.667 6.667-6.667 6.666-6.666-6.666z"/><path fill="url(#f)" fill-opacity=".2" d="m59.414 62.08 6.666-6.667 6.667 6.667-6.667 6.666-6.666-6.666z"/><path fill="#3F3986" fill-opacity=".02" d="M79.414 54.08v8L66.08 48.746h8l5.334 5.334z"/><path fill="url(#g)" fill-opacity=".2" d="M79.414 54.08v8L66.08 48.746h8l5.334 5.334z"/><path fill="#3F3986" fill-opacity=".02" d="M79.414 70.08v-8L66.08 75.413h8l5.334-5.333z"/><path fill="url(#h)" fill-opacity=".2" d="M79.414 70.08v-8L66.08 75.413h8l5.334-5.333z"/><path fill="#3F3986" fill-opacity=".02" d="M52.747 70.08v-8L66.08 75.413h-8l-5.333-5.333z"/><path fill="url(#i)" fill-opacity=".2" d="M52.747 70.08v-8L66.08 75.413h-8l-5.333-5.333z"/><path fill="#3F3986" fill-opacity=".02" d="M52.747 54.08v8L66.08 48.746h-8l-5.333 5.334z"/><path fill="url(#j)" fill-opacity=".2" d="M52.747 54.08v8L66.08 48.746h-8l-5.333 5.334z"/></g></g><defs><linearGradient id="b" x1="66.08" x2="66.08" y1="0" y2="124.16" gradientUnits="userSpaceOnUse"><stop stop-color="#3447B3"/><stop offset=".746" stop-color="#333" stop-opacity="0"/></linearGradient><linearGradient id="c" x1="66.08" x2="66.08" y1="14.4" y2="109.76" gradientUnits="userSpaceOnUse"><stop stop-color="#3447B3"/><stop offset=".824" stop-color="#333" stop-opacity="0"/></linearGradient><linearGradient id="d" x1="66.08" x2="66.08" y1="31.68" y2="92.48" gradientUnits="userSpaceOnUse"><stop stop-color="#3447B3"/><stop offset=".85" stop-color="#333" stop-opacity="0"/></linearGradient><linearGradient id="f" x1="66.08" x2="66.08" y1="35.923" y2="75.413" gradientUnits="userSpaceOnUse"><stop stop-color="#6471B7"/><stop offset=".774" stop-color="#414490" stop-opacity="0"/></linearGradient><linearGradient id="g" x1="66.08" x2="66.08" y1="35.923" y2="75.413" gradientUnits="userSpaceOnUse"><stop stop-color="#6471B7"/><stop offset=".774" stop-color="#414490" stop-opacity="0"/></linearGradient><linearGradient id="h" x1="66.08" x2="66.08" y1="35.923" y2="75.413" gradientUnits="userSpaceOnUse"><stop stop-color="#6471B7"/><stop offset=".774" stop-color="#414490" stop-opacity="0"/></linearGradient><linearGradient id="i" x1="66.08" x2="66.08" y1="35.923" y2="75.413" gradientUnits="userSpaceOnUse"><stop stop-color="#6471B7"/><stop offset=".774" stop-color="#414490" stop-opacity="0"/></linearGradient><linearGradient id="j" x1="66.08" x2="66.08" y1="35.923" y2="75.413" gradientUnits="userSpaceOnUse"><stop stop-color="#6471B7"/><stop offset=".774" stop-color="#414490" stop-opacity="0"/></linearGradient><filter id="a" width="132.16" height="132.16" x="0" y="0" color-interpolation-filters="sRGB" filterUnits="userSpaceOnUse"><feFlood flood-opacity="0" result="BackgroundImageFix"/><feColorMatrix in="SourceAlpha" result="hardAlpha" values="0 0 0 0 0 0 0 0 0 0 0 0 0 0 0 0 0 0 127 0"/><feOffset dy="4"/><feGaussianBlur stdDeviation="2"/><feComposite in2="hardAlpha" operator="out"/><feColorMatrix values="0 0 0 0 0 0 0 0 0 0 0 0 0 0 0 0 0 0 0.25 0"/><feBlend in2="BackgroundImageFix" result="effect1_dropShadow_138_7907"/><feBlend in="SourceGraphic" in2="effect1_dropShadow_138_7907" result="shape"/></filter><filter id="e" width="26.667" height="26.667" x="52.747" y="48.746" color-interpolation-filters="sRGB" filterUnits="userSpaceOnUse"><feFlood flood-opacity="0" result="BackgroundImageFix"/><feBlend in="SourceGraphic" in2="BackgroundImageFix" result="shape"/><feColorMatrix in="SourceAlpha" result="hardAlpha" values="0 0 0 0 0 0 0 0 0 0 0 0 0 0 0 0 0 0 127 0"/><feOffset/><feGaussianBlur stdDeviation="4.08"/><feComposite in2="hardAlpha" k2="-1" k3="1" operator="arithmetic"/><feColorMatrix values="0 0 0 0 1 0 0 0 0 1 0 0 0 0 1 0 0 0 0.2 0"/><feBlend in2="shape" result="effect1_innerShadow_138_7907"/></filter></defs></svg>